nohup: ignoring input
[2025-12-14 22:46:14 +0000] [49155] [INFO] Starting gunicorn 23.0.0
[2025-12-14 22:46:14 +0000] [49155] [INFO] Listening at: http://0.0.0.0:5000 (49155)
[2025-12-14 22:46:14 +0000] [49155] [INFO] Using worker: sync
[2025-12-14 22:46:14 +0000] [49167] [INFO] Booting worker with pid: 49167
ffmpeg version 6.1.1-3ubuntu5 Copyright (c) 2000-2023 the FFmpeg developers
  built with gcc 13 (Ubuntu 13.2.0-23ubuntu3)
  configuration: --prefix=/usr --extra-version=3ubuntu5 --toolchain=hardened --libdir=/usr/lib/x86_64-linux-gnu --incdir=/usr/include/x86_64-linux-gnu --arch=amd64 --enable-gpl --disable-stripping --disable-omx --enable-gnutls --enable-libaom --enable-libass --enable-libbs2b --enable-libcaca --enable-libcdio --enable-libcodec2 --enable-libdav1d --enable-libflite --enable-libfontconfig --enable-libfreetype --enable-libfribidi --enable-libglslang --enable-libgme --enable-libgsm --enable-libharfbuzz --enable-libmp3lame --enable-libmysofa --enable-libopenjpeg --enable-libopenmpt --enable-libopus --enable-librubberband --enable-libshine --enable-libsnappy --enable-libsoxr --enable-libspeex --enable-libtheora --enable-libtwolame --enable-libvidstab --enable-libvorbis --enable-libvpx --enable-libwebp --enable-libx265 --enable-libxml2 --enable-libxvid --enable-libzimg --enable-openal --enable-opencl --enable-opengl --disable-sndio --enable-libvpl --disable-libmfx --enable-libdc1394 --enable-libdrm --enable-libiec61883 --enable-chromaprint --enable-frei0r --enable-ladspa --enable-libbluray --enable-libjack --enable-libpulse --enable-librabbitmq --enable-librist --enable-libsrt --enable-libssh --enable-libsvtav1 --enable-libx264 --enable-libzmq --enable-libzvbi --enable-lv2 --enable-sdl2 --enable-libplacebo --enable-librav1e --enable-pocketsphinx --enable-librsvg --enable-libjxl --enable-shared
  libavutil      58. 29.100 / 58. 29.100
  libavcodec     60. 31.102 / 60. 31.102
  libavformat    60. 16.100 / 60. 16.100
  libavdevice    60.  3.100 / 60.  3.100
  libavfilter     9. 12.100 /  9. 12.100
  libswscale      7.  5.100 /  7.  5.100
  libswresample   4. 12.100 /  4. 12.100
  libpostproc    57.  3.100 / 57.  3.100
Input #0, image2, from 'outputs/functions/1765752419/bg.jpg':
  Duration: 00:00:00.04, start: 0.000000, bitrate: 29679 kb/s
  Stream #0:0: Video: mjpeg (Baseline), yuvj420p(pc, bt470bg/unknown/unknown), 720x1280 [SAR 1:1 DAR 9:16], 25 fps, 25 tbr, 25 tbn
[aist#1:0/pcm_s16le @ 0x5b81a8da5fc0] Guessed Channel Layout: mono
Input #1, wav, from 'outputs/functions/1765752419/speech.wav':
  Duration: 00:00:12.83, bitrate: 352 kb/s
  Stream #1:0: Audio: pcm_s16le ([1][0][0][0] / 0x0001), 22050 Hz, 1 channels, s16, 352 kb/s
Stream mapping:
  Stream #0:0 -> #0:0 (mjpeg (native) -> h264 (libx264))
  Stream #1:0 -> #0:1 (pcm_s16le (native) -> aac (native))
Press [q] to stop, [?] for help
[swscaler @ 0x5b81a8c4ec00] deprecated pixel format used, make sure you did set range correctly
    Last message repeated 3 times
[libx264 @ 0x5b81a8c03d40] using SAR=1/1
[libx264 @ 0x5b81a8c03d40] using cpu capabilities: MMX2 SSE2Fast SSSE3 SSE4.2 AVX FMA3 BMI2 AVX2 AVX512
[libx264 @ 0x5b81a8c03d40] profile High, level 3.1, 4:2:0, 8-bit
[libx264 @ 0x5b81a8c03d40] 264 - core 164 r3108 31e19f9 - H.264/MPEG-4 AVC codec - Copyleft 2003-2023 - http://www.videolan.org/x264.html - options: cabac=1 ref=3 deblock=1:0:0 analyse=0x3:0x113 me=hex subme=7 psy=1 psy_rd=1.00:0.00 mixed_ref=1 me_range=16 chroma_me=1 trellis=1 8x8dct=1 cqm=0 deadzone=21,11 fast_pskip=1 chroma_qp_offset=-2 threads=3 lookahead_threads=1 sliced_threads=0 nr=0 decimate=1 interlaced=0 bluray_compat=0 constrained_intra=0 bframes=3 b_pyramid=2 b_adapt=1 b_bias=0 direct=1 weightb=1 open_gop=0 weightp=2 keyint=250 keyint_min=25 scenecut=40 intra_refresh=0 rc_lookahead=40 rc=crf mbtree=1 crf=23.0 qcomp=0.60 qpmin=0 qpmax=69 qpstep=4 ip_ratio=1.40 aq=1:1.00
[aac @ 0x5b81a8e246c0] Too many bits 8916.462585 > 6144 per frame requested, clamping to max
Output #0, mp4, to 'outputs/functions/1765752419/short_small.mp4':
  Metadata:
    encoder         : Lavf60.16.100
  Stream #0:0: Video: h264 (avc1 / 0x31637661), yuv420p(tv, bt470bg/unknown/unknown, progressive), 720x1280 [SAR 1:1 DAR 9:16], q=2-31, 30 fps, 15360 tbn
    Metadata:
      encoder         : Lavc60.31.102 libx264
    Side data:
      cpb: bitrate max/min/avg: 0/0/0 buffer size: 0 vbv_delay: N/A
  Stream #0:1: Audio: aac (LC) (mp4a / 0x6134706D), 22050 Hz, mono, fltp, 132 kb/s
    Metadata:
      encoder         : Lavc60.31.102 aac
frame=    0 fps=0.0 q=0.0 size=       0kB time=N/A bitrate=N/A speed=N/A    frame=    8 fps=0.0 q=29.0 size=       0kB time=00:00:01.57 bitrate=   0.2kbits/s dup=9 drop=0 speed=2.98x    frame=   44 fps= 43 q=29.0 size=       0kB time=00:00:02.87 bitrate=   0.1kbits/s dup=15 drop=0 speed=2.79x    frame=   80 fps= 52 q=29.0 size=       0kB time=00:00:04.08 bitrate=   0.1kbits/s dup=21 drop=0 speed=2.66x    frame=  116 fps= 57 q=29.0 size=       0kB time=00:00:05.24 bitrate=   0.1kbits/s dup=27 drop=0 speed=2.57x    frame=  155 fps= 61 q=29.0 size=       0kB time=00:00:06.45 bitrate=   0.1kbits/s dup=34 drop=0 speed=2.53x    frame=  187 fps= 61 q=29.0 size=       0kB time=00:00:07.61 bitrate=   0.1kbits/s dup=39 drop=0 speed=2.49x    frame=  211 fps= 59 q=29.0 size=       0kB time=00:00:08.45 bitrate=   0.0kbits/s dup=43 drop=0 speed=2.37x    frame=  247 fps= 61 q=29.0 size=       0kB time=00:00:09.56 bitrate=   0.0kbits/s dup=49 drop=0 speed=2.35x    frame=  283 fps= 62 q=29.0 size=     256kB time=00:00:10.82 bitrate= 193.8kbits/s dup=55 drop=0 speed=2.36x    frame=  323 fps= 64 q=29.0 size=     256kB time=00:00:12.16 bitrate= 172.4kbits/s dup=62 drop=0 speed=2.39x    [out#0/mp4 @ 0x5b81a8d4cd80] video:268kB audio:165kB subtitle:0kB other streams:0kB global headers:0kB muxing overhead: 2.698772%
frame=  384 fps= 69 q=-1.0 Lsize=     445kB time=00:00:12.81 bitrate= 284.3kbits/s dup=64 drop=0 speed=2.29x    
[libx264 @ 0x5b81a8c03d40] frame I:2     Avg QP:16.23  size:116132
[libx264 @ 0x5b81a8c03d40] frame P:97    Avg QP:22.25  size:   101
[libx264 @ 0x5b81a8c03d40] frame B:285   Avg QP:23.05  size:   111
[libx264 @ 0x5b81a8c03d40] consecutive B-frames:  1.0%  0.0%  0.0% 99.0%
[libx264 @ 0x5b81a8c03d40] mb I  I16..4: 54.3% 17.7% 28.0%
[libx264 @ 0x5b81a8c03d40] mb P  I16..4:  0.1%  0.0%  0.0%  P16..4:  0.3%  0.1%  0.0%  0.0%  0.0%    skip:99.5%
[libx264 @ 0x5b81a8c03d40] mb B  I16..4:  0.0%  0.0%  0.0%  B16..8:  3.1%  0.0%  0.0%  direct: 0.0%  skip:96.8%  L0:69.2% L1:30.8% BI: 0.0%
[libx264 @ 0x5b81a8c03d40] 8x8 transform intra:22.0% inter:48.6%
[libx264 @ 0x5b81a8c03d40] coded y,uvDC,uvAC intra: 25.7% 42.1% 35.7% inter: 0.0% 0.0% 0.0%
[libx264 @ 0x5b81a8c03d40] i16 v,h,dc,p: 11% 85%  3%  1%
[libx264 @ 0x5b81a8c03d40] i8 v,h,dc,ddl,ddr,vr,hd,vl,hu:  7% 38% 33%  3%  3%  4%  4%  4%  5%
[libx264 @ 0x5b81a8c03d40] i4 v,h,dc,ddl,ddr,vr,hd,vl,hu: 25% 22% 21%  5%  5%  6%  6%  4%  5%
[libx264 @ 0x5b81a8c03d40] i8c dc,h,v,p: 55% 30% 13%  3%
[libx264 @ 0x5b81a8c03d40] Weighted P-Frames: Y:0.0% UV:0.0%
[libx264 @ 0x5b81a8c03d40] ref P L0: 79.1%  1.6% 16.7%  2.6%
[libx264 @ 0x5b81a8c03d40] ref B L0: 12.3% 87.5%  0.2%
[libx264 @ 0x5b81a8c03d40] ref B L1: 98.7%  1.3%
[libx264 @ 0x5b81a8c03d40] kb/s:171.06
[aac @ 0x5b81a8e246c0] Qavg: 65344.598
ffmpeg version 6.1.1-3ubuntu5 Copyright (c) 2000-2023 the FFmpeg developers
  built with gcc 13 (Ubuntu 13.2.0-23ubuntu3)
  configuration: --prefix=/usr --extra-version=3ubuntu5 --toolchain=hardened --libdir=/usr/lib/x86_64-linux-gnu --incdir=/usr/include/x86_64-linux-gnu --arch=amd64 --enable-gpl --disable-stripping --disable-omx --enable-gnutls --enable-libaom --enable-libass --enable-libbs2b --enable-libcaca --enable-libcdio --enable-libcodec2 --enable-libdav1d --enable-libflite --enable-libfontconfig --enable-libfreetype --enable-libfribidi --enable-libglslang --enable-libgme --enable-libgsm --enable-libharfbuzz --enable-libmp3lame --enable-libmysofa --enable-libopenjpeg --enable-libopenmpt --enable-libopus --enable-librubberband --enable-libshine --enable-libsnappy --enable-libsoxr --enable-libspeex --enable-libtheora --enable-libtwolame --enable-libvidstab --enable-libvorbis --enable-libvpx --enable-libwebp --enable-libx265 --enable-libxml2 --enable-libxvid --enable-libzimg --enable-openal --enable-opencl --enable-opengl --disable-sndio --enable-libvpl --disable-libmfx --enable-libdc1394 --enable-libdrm --enable-libiec61883 --enable-chromaprint --enable-frei0r --enable-ladspa --enable-libbluray --enable-libjack --enable-libpulse --enable-librabbitmq --enable-librist --enable-libsrt --enable-libssh --enable-libsvtav1 --enable-libx264 --enable-libzmq --enable-libzvbi --enable-lv2 --enable-sdl2 --enable-libplacebo --enable-librav1e --enable-pocketsphinx --enable-librsvg --enable-libjxl --enable-shared
  libavutil      58. 29.100 / 58. 29.100
  libavcodec     60. 31.102 / 60. 31.102
  libavformat    60. 16.100 / 60. 16.100
  libavdevice    60.  3.100 / 60.  3.100
  libavfilter     9. 12.100 /  9. 12.100
  libswscale      7.  5.100 /  7.  5.100
  libswresample   4. 12.100 /  4. 12.100
  libpostproc    57.  3.100 / 57.  3.100
Input #0, mov,mp4,m4a,3gp,3g2,mj2, from 'outputs/functions/1765752419/short_small.mp4':
  Metadata:
    major_brand     : isom
    minor_version   : 512
    compatible_brands: isomiso2avc1mp41
    encoder         : Lavf60.16.100
  Duration: 00:00:12.83, start: 0.000000, bitrate: 284 kb/s
  Stream #0:0[0x1](und): Video: h264 (High) (avc1 / 0x31637661), yuv420p(tv, bt470bg/unknown/unknown, progressive), 720x1280 [SAR 1:1 DAR 9:16], 171 kb/s, 30 fps, 30 tbr, 15360 tbn (default)
    Metadata:
      handler_name    : VideoHandler
      vendor_id       : [0][0][0][0]
      encoder         : Lavc60.31.102 libx264
  Stream #0:1[0x2](und): Audio: aac (LC) (mp4a / 0x6134706D), 22050 Hz, mono, fltp, 105 kb/s (default)
    Metadata:
      handler_name    : SoundHandler
      vendor_id       : [0][0][0][0]
Stream mapping:
  Stream #0:0 -> #0:0 (h264 (native) -> h264 (libx264))
  Stream #0:1 -> #0:1 (copy)
Press [q] to stop, [?] for help
[libx264 @ 0x633f99028340] using SAR=1/1
[libx264 @ 0x633f99028340] using cpu capabilities: MMX2 SSE2Fast SSSE3 SSE4.2 AVX FMA3 BMI2 AVX2 AVX512
[libx264 @ 0x633f99028340] profile High, level 5.0, 4:2:0, 8-bit
[libx264 @ 0x633f99028340] 264 - core 164 r3108 31e19f9 - H.264/MPEG-4 AVC codec - Copyleft 2003-2023 - http://www.videolan.org/x264.html - options: cabac=1 ref=5 deblock=1:0:0 analyse=0x3:0x113 me=hex subme=8 psy=1 psy_rd=1.00:0.00 mixed_ref=1 me_range=16 chroma_me=1 trellis=2 8x8dct=1 cqm=0 deadzone=21,11 fast_pskip=1 chroma_qp_offset=-2 threads=3 lookahead_threads=1 sliced_threads=0 nr=0 decimate=1 interlaced=0 bluray_compat=0 constrained_intra=0 bframes=3 b_pyramid=2 b_adapt=1 b_bias=0 direct=3 weightb=1 open_gop=0 weightp=2 keyint=250 keyint_min=25 scenecut=40 intra_refresh=0 rc_lookahead=50 rc=crf mbtree=1 crf=18.0 qcomp=0.60 qpmin=0 qpmax=69 qpstep=4 ip_ratio=1.40 aq=1:1.00
Output #0, mp4, to 'outputs/functions/1765752419/short.mp4':
  Metadata:
    major_brand     : isom
    minor_version   : 512
    compatible_brands: isomiso2avc1mp41
    encoder         : Lavf60.16.100
  Stream #0:0(und): Video: h264 (avc1 / 0x31637661), yuv420p(tv, bt470bg/unknown/unknown, progressive), 1080x1920 [SAR 1:1 DAR 9:16], q=2-31, 30 fps, 15360 tbn (default)
    Metadata:
      handler_name    : VideoHandler
      vendor_id       : [0][0][0][0]
      encoder         : Lavc60.31.102 libx264
    Side data:
      cpb: bitrate max/min/avg: 0/0/0 buffer size: 0 vbv_delay: N/A
  Stream #0:1(und): Audio: aac (LC) (mp4a / 0x6134706D), 22050 Hz, mono, fltp, 105 kb/s (default)
    Metadata:
      handler_name    : SoundHandler
      vendor_id       : [0][0][0][0]
frame=    0 fps=0.0 q=0.0 size=       0kB time=00:00:00.04 bitrate=   8.3kbits/s speed=3.27x    frame=    0 fps=0.0 q=0.0 size=       0kB time=00:00:01.62 bitrate=   0.2kbits/s speed=3.14x    frame=    0 fps=0.0 q=24.0 size=       0kB time=00:00:01.99 bitrate=   0.2kbits/s speed=1.68x    frame=   18 fps= 11 q=24.0 size=     256kB time=00:00:02.55 bitrate= 821.2kbits/s speed=1.51x    frame=   35 fps= 16 q=24.0 size=     256kB time=00:00:03.06 bitrate= 684.3kbits/s speed=1.39x    frame=   51 fps= 19 q=24.0 size=     256kB time=00:00:03.62 bitrate= 579.1kbits/s speed=1.33x    frame=   65 fps= 20 q=24.0 size=     256kB time=00:00:04.13 bitrate= 507.5kbits/s speed=1.28x    frame=   81 fps= 22 q=24.0 size=     256kB time=00:00:04.59 bitrate= 456.2kbits/s speed=1.23x    frame=   97 fps= 23 q=24.0 size=     256kB time=00:00:05.15 bitrate= 406.9kbits/s speed=1.21x    frame=  115 fps= 24 q=24.0 size=     256kB time=00:00:05.75 bitrate= 364.2kbits/s speed= 1.2x    frame=  131 fps= 25 q=24.0 size=     256kB time=00:00:06.36 bitrate= 329.7kbits/s speed=1.19x    frame=  148 fps= 25 q=24.0 size=     256kB time=00:00:06.82 bitrate= 307.3kbits/s speed=1.17x    frame=  163 fps= 26 q=24.0 size=     256kB time=00:00:07.43 bitrate= 282.3kbits/s speed=1.17x    frame=  182 fps= 26 q=24.0 size=     256kB time=00:00:07.98 bitrate= 262.6kbits/s speed=1.16x    frame=  198 fps= 27 q=24.0 size=     256kB time=00:00:08.54 bitrate= 245.5kbits/s speed=1.15x    frame=  212 fps= 27 q=24.0 size=     256kB time=00:00:09.05 bitrate= 231.6kbits/s speed=1.14x    frame=  230 fps= 27 q=24.0 size=     256kB time=00:00:09.56 bitrate= 219.3kbits/s speed=1.13x    frame=  245 fps= 27 q=24.0 size=     256kB time=00:00:10.12 bitrate= 207.2kbits/s speed=1.13x    frame=  251 fps= 26 q=24.0 size=     512kB time=00:00:10.30 bitrate= 406.9kbits/s speed=1.08x    frame=  269 fps= 27 q=24.0 size=     768kB time=00:00:10.91 bitrate= 576.5kbits/s speed=1.08x    frame=  288 fps= 27 q=24.0 size=     768kB time=00:00:11.56 bitrate= 544.1kbits/s speed=1.09x    frame=  305 fps= 27 q=24.0 size=     768kB time=00:00:12.12 bitrate= 519.1kbits/s speed=1.09x    frame=  327 fps= 28 q=24.0 size=     768kB time=00:00:12.81 bitrate= 490.9kbits/s speed= 1.1x    [out#0/mp4 @ 0x633f98fd1f00] video:670kB audio:165kB subtitle:0kB other streams:0kB global headers:0kB muxing overhead: 1.400260%
frame=  384 fps= 30 q=-1.0 Lsize=     846kB time=00:00:12.81 bitrate= 541.0kbits/s speed=0.997x    
[libx264 @ 0x633f99028340] frame I:2     Avg QP:10.24  size:302022
[libx264 @ 0x633f99028340] frame P:97    Avg QP:15.05  size:   398
[libx264 @ 0x633f99028340] frame B:285   Avg QP:14.71  size:   149
[libx264 @ 0x633f99028340] consecutive B-frames:  1.0%  0.0%  0.0% 99.0%
[libx264 @ 0x633f99028340] mb I  I16..4: 52.2% 12.7% 35.1%
[libx264 @ 0x633f99028340] mb P  I16..4:  0.1%  0.0%  0.0%  P16..4:  1.6%  0.1%  0.1%  0.0%  0.0%    skip:98.2%
[libx264 @ 0x633f99028340] mb B  I16..4:  0.0%  0.0%  0.0%  B16..8:  1.9%  0.0%  0.0%  direct: 0.0%  skip:98.0%  L0:88.0% L1:11.7% BI: 0.3%
[libx264 @ 0x633f99028340] 8x8 transform intra:12.3% inter:48.3%
[libx264 @ 0x633f99028340] direct mvs  spatial:99.3% temporal:0.7%
[libx264 @ 0x633f99028340] coded y,uvDC,uvAC intra: 37.8% 53.1% 51.6% inter: 0.0% 0.4% 0.0%
[libx264 @ 0x633f99028340] i16 v,h,dc,p: 22% 76%  2%  0%
[libx264 @ 0x633f99028340] i8 v,h,dc,ddl,ddr,vr,hd,vl,hu:  8% 42% 21%  4%  4%  4%  5%  5%  7%
[libx264 @ 0x633f99028340] i4 v,h,dc,ddl,ddr,vr,hd,vl,hu: 18% 23% 13%  8%  9%  6%  7%  7% 10%
[libx264 @ 0x633f99028340] i8c dc,h,v,p: 58% 28% 12%  2%
[libx264 @ 0x633f99028340] Weighted P-Frames: Y:0.0% UV:0.0%
[libx264 @ 0x633f99028340] ref P L0: 89.0%  0.3%  6.6%  3.1%  0.9%
[libx264 @ 0x633f99028340] ref B L0:  7.4% 91.9%  0.4%  0.3%
[libx264 @ 0x633f99028340] ref B L1: 99.4%  0.6%
[libx264 @ 0x633f99028340] kb/s:428.13
